# xmcd
# Track frame offsets:
# 150
# 19289
# 32523
# 46361
# 63666
# 76236
# 94726
# 108386
# 121496
# 134325
# 147873
# 170598
# 183723
# 197577
# 207978
# 221957
# 234616
# 244797
# 263461
# 279591
# 293131
#
# Disc length: 4183 seconds
# Revision: 4
# Processed by: cddbd v1.5.2PL0 Copyright (c) Steve Scherf et al.
# Submitted via: VisiTrax 2.11.3.279 - For more info visit www.synapsa.com
#
DISCID=40105515
DTITLE=Various Artist - Blues - Natural Blues - Disc 2
DYEAR=2001
DGENRE=Blues
TTITLE0=U2 and King, B.B. - When Love Comes To Town
TTITLE1=Waters, Muddy - Mannish Boy
TTITLE2=King, Albert - Searchin' For A Woman
TTITLE3=Fleetwood Mac - Need Your Love So Band
TTITLE4=Cale, JJ - Cocaine
TTITLE5=Cray, Robert - Smoking Gun
TTITLE6=James, Elmore - Dust My Broom
TTITLE7=Simone, Nina - Feeling Good
TTITLE8=Tucker, Tommy - High Heel Sneakers
TTITLE9=Taylor, Koko - Wang Dang Doodle
TTITLE10=King, B.B. - The Thrill Is Gone
TTITLE11=Diddley, Bo - I'm A Man
TTITLE12=Dixon, Willie - Walkin' The Blues
TTITLE13=Guy, Buddy - First Time I Met The Blues
TTITLE14=James, Etta - I Just Wanna Make Love To You
TTITLE15=Rogers, Jimmy - Walking By Myself
TTITLE16=Chuck Berry - Down The Road A Piece
TTITLE17=Cream - Crossroads
TTITLE18=Mayall's Bluesbreakers, John - All Your Love
TTITLE19=Hooker, John Lee - One Bourbon, One Scotch, One Beer
TTITLE20=Commitments - Try A Little Tenderness
EXTD=YEAR: 2001
EXTT0=
EXTT1=
EXTT2=
EXTT3=
EXTT4=
EXTT5=
EXTT6=
EXTT7=
EXTT8=
EXTT9=
EXTT10=
EXTT11=
EXTT12=
EXTT13=
EXTT14=
EXTT15=
EXTT16=
EXTT17=
EXTT18=
EXTT19=
EXTT20=
PLAYORDER=
